<?xml version="1.0" encoding="UTF-8"?><!DOCTYPE svg PUBLIC "-//W3C//DTD SVG 1.1//EN" "http://www.w3.org/Graphics/SVG/1.1/DTD/svg11.dtd"><svg xmlns="http://www.w3.org/2000/svg" xmlns:xlink="http://www.w3.org/1999/xlink"><defs/><symbol id="default" viewBox="0 0 48 48"><path fill="currentColor" d="M18 8c-4.087.003-5.537 5.413-2 7.46V18h-6c-2.216 0-4 1.784-4 4v16c0 2.216 1.784 4 4 4h16c2.216 0 4-1.784 4-4v-6h2.54c2.047 3.537 7.457 2.087 7.46-2-.003-4.087-5.413-5.537-7.46-2H30v-6c0-2.216-1.784-4-4-4h-6v-2.541A4 4 0 0 0 22 12a4 4 0 0 0-4-4zm0 2c2.667 0 2.667 4 0 4s-2.667-4 0-4zm-6 12h12c1.108 0 2 .892 2 2v12c0 1.108-.892 2-2 2H12c-1.108 0-2-.892-2-2V24c0-1.108.892-2 2-2zm24 6c1.1 0 2 .9 2 2s-.9 2-2 2-2-.9-2-2 .9-2 2-2z"/></symbol><symbol id="ide" viewBox="0 0 48 48"><path fill="currentColor" d="M44 24.712L29.8 30.61v-3.05l9.938-4.061-9.938-4.06v-3.05L44 22.287z"/><path fill="currentColor" d="M18.2 30.61L4 24.713v-2.424l14.2-5.899v3.05l-9.938 4.072 9.938 4.05z"/><path fill="currentColor" d="M30.351 13.5l-8.436 20h-3.266l8.404-20z"/></symbol><symbol id="minus" viewBox="0 0 48 48"><path fill="currentColor" d="M38,44 10,24 38,4Z"/></symbol><symbol id="plus" viewBox="0 0 48 48"><path fill="currentColor" d="M10,4 38,24 10,44Z"/></symbol><symbol id="start" viewBox="0 0 48 48"><path fill="green" d="M 10,4 38,24 10,44 Z"/></symbol><symbol id="stop" viewBox="0 0 48 48"><path fill="#aaaaaa" d="M12 12h24v24H12z"/></symbol></svg>