<svg xmlns="http://www.w3.org/2000/svg" viewBox="0 0 48 48">
    <path fill="#304878" d="M22.526 38.112c-1.005-.525-1.653-1.903-1.47-3.126.265-1.769 2.305-3.017 3.924-2.401 2.418.919 2.798 4.177.64 5.492-.81.493-2.185.509-3.094.035zm-6.228-8.13c-.67-.676-1.215-1.316-1.21-1.42.017-.35 1.835-1.673 3.229-2.35 1.841-.894 3.537-1.267 5.785-1.27 3.007-.005 5.496.845 7.908 2.698l1.148.883-1.364 1.364-1.364 1.364-1.041-.788c-3.205-2.425-7.786-2.347-11.005.188-.393.31-.749.562-.79.562-.042 0-.625-.553-1.296-1.23zm-5.539-5.55l-1.269-1.29 1.079-.978c1.388-1.26 3.498-2.574 5.43-3.383 5.308-2.223 11.538-2.132 16.602.241 1.667.781 3.96 2.266 5.274 3.414l.739.645-1.358 1.347-1.357 1.347-1.123-.916a17.562 17.562 0 0 0-5.58-3.078c-1.634-.551-2.187-.64-4.51-.717-2.235-.075-2.921-.024-4.411.33-2.222.53-4.906 1.823-6.713 3.237-.768.6-1.427 1.092-1.465 1.092-.038 0-.64-.58-1.338-1.29zm-5.49-5.49L4 17.653l1.176-1.074c3.506-3.201 8.754-5.77 13.636-6.674 2.806-.52 8.26-.471 10.911.099 4.956 1.064 9.768 3.466 13.048 6.513L44 17.656l-1.3 1.312-1.3 1.312-1.667-1.347c-7.862-6.352-18.063-7.476-26.885-2.962-1.943.994-4.514 2.776-5.402 3.744-.261.285-.573.518-.692.518s-.787-.58-1.485-1.29z"/>
</svg>
