<svg xmlns="http://www.w3.org/2000/svg" viewBox="0 0 48 48"><rect width="48" height="48" fill="#d4dced" opacity="1" rx="8" /><path d="M6 20.92L20.424 6 34 20.92V42H6z" fill="none" stroke="#203050" stroke-width="4" stroke-linejoin="round" /><path
      d="M31 3a14 14 0 0114 14 2 2 0 01-4 0A10 10 0 0031 7a2 2 0 010-4zm0 6a8 8 0 018 8 2 2 0 01-4 0 4 4 0 00-4-4 2 2 0 010-4zm-2 8a2 2 0 114 0 2 2 0 11-4 0z"
      fill="#0a0" /><path
      d="M15 20a1 1 0 00-1 1v1c-1.09 0-2 .91-2 2h-1a1 1 0 00-1 1 1 1 0 001 1h1v1h-1a1 1 0 00-1 1 1 1 0 001 1h1v1h-1a1 1 0 00-1 1 1 1 0 001 1h1v1h-1a1 1 0 00-1 1 1 1 0 001 1h1c0 1.09.91 2 2 2v1a1 1 0 001 1 1 1 0 001-1v-1h1v1a1 1 0 001 1 1 1 0 001-1v-1h1v1a1 1 0 001 1 1 1 0 001-1v-1h1v1a1 1 0 001 1 1 1 0 001-1v-1c1.09 0 2-.91 2-2h1a1 1 0 001-1 1 1 0 00-1-1h-1v-1h1a1 1 0 001-1 1 1 0 00-1-1h-1v-1h1a1 1 0 001-1 1 1 0 00-1-1h-1v-1h1a1 1 0 001-1 1 1 0 00-1-1h-1c0-1.09-.91-2-2-2v-1a1 1 0 00-1-1 1 1 0 00-1 1v1h-1v-1a1 1 0 00-1-1 1 1 0 00-1 1v1h-1v-1a1 1 0 00-1-1 1 1 0 00-1 1v1h-1v-1a1 1 0 00-1-1zm-1 4h11v11H14V24z"
      fill="#00A" /></svg>