<?xml version="1.0" encoding="UTF-8"?><!DOCTYPE svg PUBLIC "-//W3C//DTD SVG 1.1//EN" "http://www.w3.org/Graphics/SVG/1.1/DTD/svg11.dtd"><svg xmlns="http://www.w3.org/2000/svg" xmlns:xlink="http://www.w3.org/1999/xlink"><defs/>
<symbol id="analog" viewBox="0 0 48 48"><path fill="#304878" d="M12 18v4H4v4h8v4l6-6zM24 32a8 8 0 0 0 7.734-6H44v-4H31.74A8 8 0 0 0 24 16v4a4 4 0 1 1 0 8z"/></symbol>
<symbol id="and" viewBox="0 0 48 48"><path fill="#304878" d="M12 4v12H4v4h8v8H4v4h8v12h4a20 20 0 0 0 19.879-18H44v-4h-8.1A20 20 0 0 0 16 4h-4zm4 4a16 16 0 0 1 16 16 16 16 0 0 1-16 16V8z"/></symbol>
<symbol id="bme680" viewBox="0 0 48 48"><path fill="#304878" d="M13.5 4C11.007 4 9.362 6.347 9 9.209V10h3V8.736C12 7.775 12.669 7 13.5 7s1.5.775 1.5 1.736v21.479a5.5 5.5 0 0 1 4 5.285 5.5 5.5 0 1 1-7-5.29V28H9v.3a8.5 8.5 0 0 0-4 7.2 8.5 8.5 0 0 0 17 0 8.5 8.5 0 0 0-4-7.205V9.209C18 6.324 15.993 4 13.5 4zM9 12h3v2H9zm0 4h3v2H9zm0 4h3v2H9zm0 4h3v2H9zm26.081 15.077c-2.584-.733-4.028-2.736-4.08-5.663-.028-1.54.312-2.325 2.325-5.367 1.655-2.5 2.636-4.361 3.234-6.138l.412-1.227.31 1c.508 1.63 1.617 3.746 3.315 6.32 2.406 3.649 2.715 4.633 2.174 6.932-.454 1.93-1.65 3.37-3.27 3.941-1.083.382-3.41.489-4.42.202zm-9.97-17.343c-1.038-.471-1.705-1.327-1.975-2.532-.32-1.431-.137-2.073 1.16-4.077 1.298-2.005 2.6-4.56 2.614-5.132.006-.212.202.13.436.762.456 1.226 1.072 2.356 2.186 4.013 1.312 1.953 1.553 2.584 1.444 3.79-.135 1.48-.82 2.622-1.88 3.135-1.052.51-2.913.528-3.986.04z"/></symbol>
<symbol id="bmp280" viewBox="0 0 48 48"><path fill="#304878" d="M13.5 4C11.007 4 9.362 6.347 9 9.209V10h3V8.736C12 7.775 12.669 7 13.5 7s1.5.775 1.5 1.736v21.479a5.5 5.5 0 0 1 4 5.285 5.5 5.5 0 1 1-7-5.29V28H9v.3a8.5 8.5 0 0 0-4 7.2 8.5 8.5 0 0 0 17 0 8.5 8.5 0 0 0-4-7.205V9.209C18 6.324 15.993 4 13.5 4zM9 12h3v2H9zm0 4h3v2H9zm0 4h3v2H9zm0 4h3v2H9zm26.081 15.077c-2.584-.733-4.028-2.736-4.08-5.663-.028-1.54.312-2.325 2.325-5.367 1.655-2.5 2.636-4.361 3.234-6.138l.412-1.227.31 1c.508 1.63 1.617 3.746 3.315 6.32 2.406 3.649 2.715 4.633 2.174 6.932-.454 1.93-1.65 3.37-3.27 3.941-1.083.382-3.41.489-4.42.202zm-9.97-17.343c-1.038-.471-1.705-1.327-1.975-2.532-.32-1.431-.137-2.073 1.16-4.077 1.298-2.005 2.6-4.56 2.614-5.132.006-.212.202.13.436.762.456 1.226 1.072 2.356 2.186 4.013 1.312 1.953 1.553 2.584 1.444 3.79-.135 1.48-.82 2.622-1.88 3.135-1.052.51-2.913.528-3.986.04z"/></symbol>
<symbol id="bulb" viewBox="0 0 48 48"><path fill="#304878" d="M24 4c-2.473 0-3.603.254-5.717 1.29-2.03.993-3.885 2.842-4.847 4.83-.9 1.856-1.286 3.77-1.153 5.71.186 2.706.904 4.636 3.31 8.918 1.882 3.347 2.617 5.041 2.776 6.389.06.508.064 1.245.1 1.361h3.394l-.103-1.252c-.19-2.24-.798-3.68-4.051-9.61-1.829-3.333-2.408-5.711-1.955-8.019.734-3.74 4.124-6.351 8.246-6.351 4.122 0 7.512 2.611 8.246 6.351.453 2.308-.126 4.686-1.955 8.02-3.255 5.933-3.861 7.37-4.05 9.617l-.106 1.244h3.33l.133-1.184c.17-1.517.878-3.132 2.808-6.566 2.407-4.282 3.125-6.212 3.31-8.918.134-1.94-.252-3.854-1.152-5.71-.962-1.988-2.818-3.837-4.847-4.83C27.603 4.253 26.473 4 24 4zm-5.531 29.912v2.018h11.097v-2.018H18.47zm0 4.035v2.018h11.097v-2.018H18.47zm1.888 4.035c.88 1.01 1.612 1.798 1.914 2.018h3.606l.762-.842c.36-.398.7-.801 1.017-1.176h-7.299z"/></symbol>
<symbol id="button" viewBox="0 0 48 48"><path fill="#304878" d="M24 8C15.164 8 8 15.164 8 24s7.147 16 16 16c8.836 0 16-7.164 16-16S32.836 8 24 8zm0 4c6.627 0 12 5.373 12 12s-5.373 12-12 12c-6.64 0-12-5.373-12-12s5.373-12 12-12z"/></symbol>
<symbol id="config" viewBox="0 0 48 48"><path fill="#304878" d="m 39.28,25.96 c 0.08,-0.64 0.14,-1.28 0.14,-1.96 0,-0.68 -0.062,-1.32 -0.14,-1.96 l 4.34,-3.3 c 0.39,-0.3 0.49,-0.84 0.25,-1.28 L 39.75,10.54 C 39.51,10.1 38.95,9.94 38.50,10.1 l -5.12,2 C 32.32,11.3 31.16,10.64 29.91,10.14 L 29.12,4.84 C 29.06,4.36 28.63,4 28.12,4 L 19.89,4 C 19.38,4 18.95,4.36 18.88,4.84 l -0.78,5.3 c -1.25,0.5 -2.41,1.18 -3.48,1.96 l -5.12,-2 c -0.47,-0.18 -1.01,0 -1.25,0.44 l -4.11,6.92 c -0.27,0.44 -0.14,0.98 0.25,1.28 l 4.34,3.3 c -0.08,0.64 -0.15,1.3 -0.14,1.96 0,0.66 0.06,1.32 0.14,1.96 l -4.34,3.3 c -0.39,0.3 -0.49,0.84 -0.25,1.28 l 4.11,6.92 c 0.25,0.44 0.80,0.6 1.25,0.44 l 5.11,-2 c 1.07,0.8 2.22,1.46 3.47,1.96 l 0.78,5.3 c 0.06,0.48 0.49,0.84 1.00,0.84 l 8.22,0 c 0.51,0 0.95,-0.36 1.01,-0.84 l 0.78,-5.3 c 1.25,-0.5 2.41,-1.18 3.47,-1.96 l 5.12,2 c 0.47,0.18 1.01,0 1.25,-0.44 l 4.11,-6.92 c 0.25,-0.44 0.14,-0.98 -0.25,-1.28 l -4.34,-3.3 z M 24.00,31 c -3.97,0 -7.2,-3.14 -7.20,-7 0,-3.86 3.23,-7 7.20,-7 3.97,0 7.20,3.14 7.20,7 0,3.86 -3.22,7 -7.20,7 z" class="object"/></symbol>
<symbol id="dcftime" viewBox="0 0 48 48"><path fill="#304878" d="M25.111 12.889h-3.333v13.333l10.555 6.334L34 29.822l-8.889-5.266zM24 4C12.956 4 4 12.956 4 24s8.933 20 20 20c11.044 0 20-8.956 20-20S35.044 4 24 4zm0 35.556C15.4 39.556 8.444 32.6 8.444 24 8.444 15.4 15.4 8.444 24 8.444c8.6 0 15.556 6.956 15.556 15.556 0 8.6-6.956 15.556-15.556 15.556z"/></symbol>
<symbol id="default" viewBox="0 0 48 48"><path fill="#304878" d="M18 8c-4.087.003-5.537 5.413-2 7.46V18h-6c-2.216 0-4 1.784-4 4v16c0 2.216 1.784 4 4 4h16c2.216 0 4-1.784 4-4v-6h2.54c2.047 3.537 7.457 2.087 7.46-2-.003-4.087-5.413-5.537-7.46-2H30v-6c0-2.216-1.784-4-4-4h-6v-2.541A4 4 0 0 0 22 12a4 4 0 0 0-4-4zm0 2c2.667 0 2.667 4 0 4s-2.667-4 0-4zm-6 12h12c1.108 0 2 .892 2 2v12c0 1.108-.892 2-2 2H12c-1.108 0-2-.892-2-2V24c0-1.108.892-2 2-2zm24 6c1.1 0 2 .9 2 2s-.9 2-2 2-2-.9-2-2 .9-2 2-2z"/></symbol>
<symbol id="device" viewBox="0 0 48 48"><path fill="#304878" d="M18 8c-4.087.003-5.537 5.413-2 7.46V18h-6c-2.216 0-4 1.784-4 4v16c0 2.216 1.784 4 4 4h16c2.216 0 4-1.784 4-4v-6h2.54c2.047 3.537 7.457 2.087 7.46-2-.003-4.087-5.413-5.537-7.46-2H30v-6c0-2.216-1.784-4-4-4h-6v-2.541A4 4 0 0 0 22 12a4 4 0 0 0-4-4zm0 2c2.667 0 2.667 4 0 4s-2.667-4 0-4zm-6 12h12c1.108 0 2 .892 2 2v12c0 1.108-.892 2-2 2H12c-1.108 0-2-.892-2-2V24c0-1.108.892-2 2-2zm24 6c1.1 0 2 .9 2 2s-.9 2-2 2-2-.9-2-2 .9-2 2-2z"/></symbol>
<symbol id="dht" viewBox="0 0 48 48"><path fill="#304878" d="M13.5 4C11.007 4 9.362 6.347 9 9.209V10h3V8.736C12 7.775 12.669 7 13.5 7s1.5.775 1.5 1.736v21.479a5.5 5.5 0 0 1 4 5.285 5.5 5.5 0 1 1-7-5.29V28H9v.3a8.5 8.5 0 0 0-4 7.2 8.5 8.5 0 0 0 17 0 8.5 8.5 0 0 0-4-7.205V9.209C18 6.324 15.993 4 13.5 4zM9 12h3v2H9zm0 4h3v2H9zm0 4h3v2H9zm0 4h3v2H9zm26.081 15.077c-2.584-.733-4.028-2.736-4.08-5.663-.028-1.54.312-2.325 2.325-5.367 1.655-2.5 2.636-4.361 3.234-6.138l.412-1.227.31 1c.508 1.63 1.617 3.746 3.315 6.32 2.406 3.649 2.715 4.633 2.174 6.932-.454 1.93-1.65 3.37-3.27 3.941-1.083.382-3.41.489-4.42.202zm-9.97-17.343c-1.038-.471-1.705-1.327-1.975-2.532-.32-1.431-.137-2.073 1.16-4.077 1.298-2.005 2.6-4.56 2.614-5.132.006-.212.202.13.436.762.456 1.226 1.072 2.356 2.186 4.013 1.312 1.953 1.553 2.584 1.444 3.79-.135 1.48-.82 2.622-1.88 3.135-1.052.51-2.913.528-3.986.04z"/></symbol>
<symbol id="digitalin" viewBox="0 0 48 48"><path fill="#304878" d="M12 18v4H4v4h8v4l6-6zM24 32a8 8 0 0 0 7.734-6H44v-4H31.74A8 8 0 0 0 24 16v4a4 4 0 1 1 0 8z"/></symbol>
<symbol id="digitalout" viewBox="0 0 48 48"><path fill="#304878" d="M24 16a8 8 0 0 0-7.734 6H4v4h12.26A8 8 0 0 0 24 32v-4a4 4 0 0 1-4-4 4 4 0 0 1 4-4v-4zM38 18v4h-8v4h8v4l6-6-6-6z"/></symbol>
<symbol id="displaybar" viewBox="0 0 48 48"><path fill="#304878" d="M18 16h20v8H18z"/><path fill="#304878" d="M8 10c-2.216 0-4 1.784-4 4v20c0 2.216 1.784 4 4 4h32c2.216 0 4-1.784 4-4V14c0-2.216-1.784-4-4-4zm2 4h28c1.108 0 2 .892 2 2v16c0 1.108-.892 2-2 2H10c-1.108 0-2-.892-2-2V16c0-1.108.892-2 2-2z"/><text x="9.484" y="31.87" font-family="Arial" font-size="10.667" font-weight="400" letter-spacing="0" word-spacing="0"><tspan x="9.484" y="31.87">bar</tspan></text></symbol>
<symbol id="displaydot" viewBox="0 0 48 48"><path fill="#304878" d="M8 10c-2.216 0-4 1.784-4 4v20c0 2.216 1.784 4 4 4h32c2.216 0 4-1.784 4-4V14c0-2.216-1.784-4-4-4zm2 4h28c1.108 0 2 .892 2 2v16c0 1.108-.892 2-2 2H10c-1.108 0-2-.892-2-2V16c0-1.108.892-2 2-2z"/><text x="9.484" y="31.87" font-family="Arial" font-size="10.667" font-weight="400" letter-spacing="0" word-spacing="0"><tspan x="9.484" y="31.87">dot</tspan></text><circle cx="34" cy="20" r="4" fill="#304878"/></symbol>
<symbol id="displaylcd" viewBox="0 0 48 48"><path fill="#304878" d="M8 10c-2.216 0-4 1.784-4 4v20c0 2.216 1.784 4 4 4h32c2.216 0 4-1.784 4-4V14c0-2.216-1.784-4-4-4zm2 4h28c1.108 0 2 .892 2 2v16c0 1.108-.892 2-2 2H10c-1.108 0-2-.892-2-2V16c0-1.108.892-2 2-2z"/><text style="line-height:25px;-inkscape-font-specification:Arial" x="9.219" y="23.87" font-family="Arial" font-size="10.667" font-weight="400" letter-spacing="0" word-spacing="0"><tspan x="9.219" y="23.87">LCD</tspan></text></symbol>
<symbol id="displayline" viewBox="0 0 48 48"><path fill="#304878" d="M8 10c-2.216 0-4 1.784-4 4v20c0 2.216 1.784 4 4 4h32c2.216 0 4-1.784 4-4V14c0-2.216-1.784-4-4-4zm2 4h28c1.108 0 2 .892 2 2v16c0 1.108-.892 2-2 2H10c-1.108 0-2-.892-2-2V16c0-1.108.892-2 2-2z"/><text style="line-height:25px;-inkscape-font-specification:Arial" x="9.484" y="31.87" font-family="Arial" font-size="10.667" font-weight="400" letter-spacing="0" word-spacing="0"><tspan x="9.484" y="31.87">line</tspan></text></symbol>
<symbol id="displaysh1106" viewBox="0 0 48 48"><path fill="#304878" d="M8 10c-2.216 0-4 1.784-4 4v20c0 2.216 1.784 4 4 4h32c2.216 0 4-1.784 4-4V14c0-2.216-1.784-4-4-4zm2 4h28c1.108 0 2 .892 2 2v16c0 1.108-.892 2-2 2H10c-1.108 0-2-.892-2-2V16c0-1.108.892-2 2-2z"/><text style="line-height:25px;-inkscape-font-specification:Arial" x="9.484" y="23.87" font-family="Arial" font-size="10.667" font-weight="400" letter-spacing="0" word-spacing="0"><tspan x="9.484" y="23.87">OLED</tspan></text></symbol>
<symbol id="displayssd1306" viewBox="0 0 48 48"><path fill="#304878" d="M8 10c-2.216 0-4 1.784-4 4v20c0 2.216 1.784 4 4 4h32c2.216 0 4-1.784 4-4V14c0-2.216-1.784-4-4-4zm2 4h28c1.108 0 2 .892 2 2v16c0 1.108-.892 2-2 2H10c-1.108 0-2-.892-2-2V16c0-1.108.892-2 2-2z"/><text style="line-height:25px;-inkscape-font-specification:Arial" x="9.484" y="23.87" font-family="Arial" font-size="10.667" font-weight="400" letter-spacing="0" word-spacing="0"><tspan x="9.484" y="23.87">OLED</tspan></text></symbol>
<symbol id="displaytext" viewBox="0 0 48 48"><path fill="#304878" d="M8 10c-2.216 0-4 1.784-4 4v20c0 2.216 1.784 4 4 4h32c2.216 0 4-1.784 4-4V14c0-2.216-1.784-4-4-4zm2 4h28c1.108 0 2 .892 2 2v16c0 1.108-.892 2-2 2H10c-1.108 0-2-.892-2-2V16c0-1.108.892-2 2-2z"/><text style="line-height:25px;-inkscape-font-specification:Arial" x="9.484" y="31.87" font-family="Arial" font-size="10.667" font-weight="400" letter-spacing="0" word-spacing="0"><tspan x="9.484" y="31.87">text</tspan></text></symbol>
<symbol id="door" viewBox="0 0 48 48"><path fill="#304878" d="M10 8h13v4h-9v28h-4zm12-4l14 4v32l-14 4zm3 20a2 2 0 1 0 4 0 2 2 0 1 0-4 0z"/></symbol>
<symbol id="ds18b20" viewBox="0 0 48 48"><path fill="#304878" d="M24 4c-2.493 0-4.138 2.347-4.5 5.209V10h3V8.736C22.5 7.775 23.169 7 24 7s1.5.775 1.5 1.736v21.479a5.5 5.5 0 014 5.285 5.5 5.5 0 11-7-5.29V28h-3v.3a8.5 8.5 0 00-4 7.2 8.5 8.5 0 0017 0 8.5 8.5 0 00-4-7.205V9.209C28.5 6.324 26.493 4 24 4zm-4.5 8h3v2h-3zm0 4h3v2h-3zm0 4h3v2h-3zm0 4h3v2h-3z"/></symbol>
<symbol id="dstime" viewBox="0 0 48 48"><path fill="#304878" d="M25.111 12.889h-3.333v13.333l10.555 6.334L34 29.822l-8.889-5.266zM24 4C12.956 4 4 12.956 4 24s8.933 20 20 20c11.044 0 20-8.956 20-20S35.044 4 24 4zm0 35.556C15.4 39.556 8.444 32.6 8.444 24 8.444 15.4 15.4 8.444 24 8.444c8.6 0 15.556 6.956 15.556 15.556 0 8.6-6.956 15.556-15.556 15.556z"/></symbol>
<symbol id="edit" viewBox="0 0 48 48"><path d="m 3.88,34.12 v 7.5 h 7.5 L 33.5,19.5 26,12 Z M 39.3,13.7 c 0.78,-0.78 0.78,-2.04 0,-2.82 L 34.62,6.2 C 33.84,5.42 32.58,5.42 31.8,6.2 l -3.66,3.66 7.5,7.5 z" fill="#304878"/></symbol>
<symbol id="element" viewBox="0 0 48 48"><path d="M18 8c-4.087.003-5.537 5.413-2 7.46V18h-6c-2.216 0-4 1.784-4 4v16c0 2.216 1.784 4 4 4h16c2.216 0 4-1.784 4-4v-6h2.54c2.047 3.537 7.457 2.087 7.46-2-.003-4.087-5.413-5.537-7.46-2H30v-6c0-2.216-1.784-4-4-4h-6v-2.541A4 4 0 0 0 22 12a4 4 0 0 0-4-4zm0 2c2.667 0 2.667 4 0 4s-2.667-4 0-4zm-6 12h12c1.108 0 2 .892 2 2v12c0 1.108-.892 2-2 2H12c-1.108 0-2-.892-2-2V24c0-1.108.892-2 2-2zm24 6c1.1 0 2 .9 2 2s-.9 2-2 2-2-.9-2-2 .9-2 2-2z" fill="#304878"/></symbol>
<symbol id="fan"><path d="M24 4A20 20 0 004 24a20 20 0 0020 20 20 20 0 0020-20A20 20 0 0024 4zm-.09 2A18 18 0 0124 6a18 18 0 0118 18 18 18 0 01-18 18A18 18 0 016 24 18 18 0 0123.91 6zm6.451 4.025c-2.367 0-3.382 1.055-4.14 2.26-.509.809-.68 2.303.156 4.283.529 1.253.628 1.669.643 2.707.01.7-.157 1.155-.403 1.7A4 4 0 0024 20a4 4 0 00-.576.041c-.593-.8-1.456-1.736-2.79-2.645-2.42-1.642-5.749-3.238-7.585-2.845-1.351.289-2.162.776-3.147 1.885-1.236 1.391-1.959 3.269-2 5.197-.02 1.004-.09 2.305.834 3.906 1.184 2.05 2.605 2.403 4.028 2.457.954.036 2.333-.563 3.63-2.277.821-1.085 1.132-1.379 2.024-1.91.591-.353 1.061-.439 1.643-.498A4 4 0 0020 24a4 4 0 00.803 2.404c-.367.877-.685 2.089-.819 3.873-.211 2.919.07 6.599 1.328 7.993.927 1.025 1.754 1.484 3.206 1.783 1.823.374 3.81.061 5.5-.867.88-.484 2.042-1.075 2.966-2.676 1.184-2.05.778-3.458.114-4.717-.446-.845-1.654-1.738-3.787-2.004-1.35-.168-1.76-.292-2.666-.799-.622-.347-.935-.729-1.291-1.226a4 4 0 002.33-2.207c1.001-.126 2.276-.432 3.779-1.157 2.633-1.275 5.68-3.36 6.258-5.146.425-1.315.409-2.26-.059-3.666-.587-1.766-1.85-3.333-3.5-4.332-.86-.52-1.951-1.23-3.8-1.23z" fill="#304878"/></symbol>
<symbol id="ide" viewBox="0 0 48 48"><path d="M44 24.712L29.8 30.61v-3.05l9.938-4.061-9.938-4.06v-3.05L44 22.287z" fill="#304878"/><path d="M18.2 30.61L4 24.713v-2.424l14.2-5.899v3.05l-9.938 4.072 9.938 4.05z" fill="#304878"/><path d="M30.351 13.5l-8.436 20h-3.266l8.404-20z" fill="#304878"/></symbol>
<symbol id="led" viewBox="0 0 48 48"><path d="M24 6c-6.648 0-12 5.352-12 12v12h-2c-1.108 0-2 .892-2 2s.892 2 2 2h8v7c0 .554.446 1 1 1s1-.446 1-1v-7h8v7c0 .554.446 1 1 1s1-.446 1-1v-7h8c1.108 0 2-.892 2-2s-.892-2-2-2h-2V18c0-6.648-5.352-12-12-12z" fill="#304878"/></symbol>
<symbol id="log" viewBox="0 0 48 48"><path style="fill:#4060a0;fill-opacity:1;stroke:none" d="M 8,4 V 43 C 8,43 16,40 18,40 c 4,0 8,4 12,4 2,0 10,-2.85 10,-2.85 V 4 Z m 4,4 H 36 V 38.75 C 36,38.75 32,40 30,40 c -4,0 -8,-4 -12,-4 -2,0 -6,1 -6,1 z M 16,12 v 2 h 4 v -2 z m 6,0 v 2 h 8 v -2 z m -6,4 v 2 h 4 v -2 z m 6,0 v 2 h 6 v -2 z m -6,4 v 2 h 4 v -2 z m 6,0 v 2 h 10 v -2 z m -6,4 v 2 h 4 v -2 z m 6,0 v 2 h 6 v -2 z m -6,4 v 2 h 4 v -2 z m 6,0 v 2 h 10 v -2 z"/></symbol>
<symbol id="max7219"><g fill="#304878"><path d="M4 4v40h40V4H4zm2 2h36v36H6V6z"/><circle cx="10" cy="10" r="2"/><circle cy="10" cx="14" r="2"/><circle r="2" cx="18" cy="10"/><circle cy="10" cx="22" r="2"/><circle r="2" cx="26" cy="10"/><circle cy="10" cx="30" r="2"/><circle r="2" cx="34" cy="10"/><circle cy="10" cx="38" r="2"/><circle r="2" cy="14" cx="10"/><circle r="2" cx="14" cy="14"/><circle cy="14" cx="18" r="2"/><circle r="2" cx="22" cy="14"/><circle cy="14" cx="26" r="2"/><circle r="2" cx="30" cy="14"/><circle cy="14" cx="34" r="2"/><circle r="2" cx="38" cy="14"/><circle cx="10" cy="18" r="2"/><circle cy="18" cx="14" r="2"/><circle r="2" cx="18" cy="18"/><circle cy="18" cx="22" r="2"/><circle r="2" cx="26" cy="18"/><circle cy="18" cx="30" r="2"/><circle r="2" cx="34" cy="18"/><circle cy="18" cx="38" r="2"/><circle r="2" cy="22" cx="10"/><circle r="2" cx="14" cy="22"/><circle cy="22" cx="18" r="2"/><circle r="2" cx="22" cy="22"/><circle cy="22" cx="26" r="2"/><circle r="2" cx="30" cy="22"/><circle cy="22" cx="34" r="2"/><circle r="2" cx="38" cy="22"/><circle cx="10" cy="26" r="2"/><circle cy="26" cx="14" r="2"/><circle r="2" cx="18" cy="26"/><circle cy="26" cx="22" r="2"/><circle r="2" cx="26" cy="26"/><circle cy="26" cx="30" r="2"/><circle r="2" cx="34" cy="26"/><circle cy="26" cx="38" r="2"/><circle r="2" cy="30" cx="10"/><circle r="2" cx="14" cy="30"/><circle cy="30" cx="18" r="2"/><circle r="2" cx="22" cy="30"/><circle cy="30" cx="26" r="2"/><circle r="2" cx="30" cy="30"/><circle cy="30" cx="34" r="2"/><circle r="2" cx="38" cy="30"/><circle cx="10" cy="34" r="2"/><circle cy="34" cx="14" r="2"/><circle r="2" cx="18" cy="34"/><circle cy="34" cx="22" r="2"/><circle r="2" cx="26" cy="34"/><circle cy="34" cx="30" r="2"/><circle r="2" cx="34" cy="34"/><circle cy="34" cx="38" r="2"/><circle r="2" cy="38" cx="10"/><circle r="2" cx="14" cy="38"/><circle cy="38" cx="18" r="2"/><circle r="2" cx="22" cy="38"/><circle cy="38" cx="26" r="2"/><circle r="2" cx="30" cy="38"/><circle cy="38" cx="34" r="2"/><circle r="2" cx="38" cy="38"/></g></symbol>
<symbol id="menu" viewBox="0 0 48 48"><path fill="#304878" d="M0 8h48v6H0zm0 13h48v6H0zm0 13h48v6H0z"/></symbol>
<symbol id="menui" viewBox="0 0 48 48"><path fill="white" d="M0 8h48v6H0zm0 13h48v6H0zm0 13h48v6H0z"/></symbol>
<symbol id="minus" viewBox="0 0 48 48"><path d="M38,44 10,24 38,4Z" fill="#304878"/></symbol>
<symbol id="neo" viewBox="0 0 48 48"><path d="M18 8c-4.087.003-5.537 5.413-2 7.46V18h-6c-2.216 0-4 1.784-4 4v16c0 2.216 1.784 4 4 4h16c2.216 0 4-1.784 4-4v-6h2.54c2.047 3.537 7.457 2.087 7.46-2-.003-4.087-5.413-5.537-7.46-2H30v-6c0-2.216-1.784-4-4-4h-6v-2.541A4 4 0 0 0 22 12a4 4 0 0 0-4-4zm0 2c2.667 0 2.667 4 0 4s-2.667-4 0-4zm-6 12h12c1.108 0 2 .892 2 2v12c0 1.108-.892 2-2 2H12c-1.108 0-2-.892-2-2V24c0-1.108.892-2 2-2zm24 6c1.1 0 2 .9 2 2s-.9 2-2 2-2-.9-2-2 .9-2 2-2z" fill="#304878"/></symbol>
<symbol id="no" viewBox="0 0 48 48"/>
<symbol id="ntptime" viewBox="0 0 48 48"><path d="M24 4C15.165 4 8 11.165 8 20c0 8.497 6.633 15.43 15 15.95v4.321a2 2 0 0 0-.73.729H8v2h14.271A2 2 0 0 0 24 44a2 2 0 0 0 1.73-1H40v-2H25.729a2 2 0 0 0-.729-.73v-4.32c8.383-.519 15-7.452 15-15.95 0-8.835-7.165-16-16-16zm0 3.555c6.88 0 12.445 5.565 12.445 12.445S30.88 32.445 24 32.445 11.555 26.88 11.555 20 17.12 7.555 24 7.555zm-.8 3.556v9.334L16 24.658l1.422 2.188 8.445-5.069V11.111z" fill="#304878"/></symbol>
<symbol id="ota" viewBox="0 0 48 48"><path fill="#304878" d="M23.27 11.367c-6.431 0-11.618 4.86-12.03 10.97-2.03.439-3.779 1.152-5.035 2.292-1.387 1.26-2.178 3.006-2.203 5.039-.027 2.105.99 3.913 2.555 5.115 1.565 1.202 3.657 1.85 5.922 1.85h22.79c4.739 0 8.643-4.055 8.729-9.46.084-5.31-4.755-8.89-9.521-8.446-1.853-4.406-6.239-7.354-11.206-7.36h-.001zM20 18h8v8h4l-8 8-8-8h4v-8z"/></symbol>
<symbol id="pin" viewBox="0 0 48 48"><path d="M31.563 4.095a8.795 8.795 0 00-2.485 6.126 8.795 8.795 0 00.08 1.095l-6.904 6.904a10.994 10.994 0 00-2.957-.417 10.994 10.994 0 00-7.889 3.337l7.104 7.104L4 42.756 5.244 44l14.512-14.513 7.199 7.2a10.994 10.994 0 003.336-7.89 10.994 10.994 0 00-.487-3.2l6.699-6.7a8.795 8.795 0 001.37.12A8.795 8.795 0 0044 16.531z" fill="#304878"/></symbol>
<symbol id="pined" viewBox="0 0 48 48"><path d="M32 22a10 10 0 00-10 10 10 10 0 0010 10 10 10 0 0010-10 10 10 0 00-10-10zm0 2a8 8 0 018 8 8 8 0 01-1.688 4.898L27.099 25.684A8 8 0 0132 24zm-6.313 3.102l11.215 11.214A8 8 0 0132 40a8 8 0 01-8-8 8 8 0 011.688-4.898z" fill="#304878"/><path d="M31.563 4.096a8.795 8.795 0 00-2.485 6.125c.004.366.03.732.08 1.095l-6.904 6.903a10.994 10.994 0 00-2.957-.416 10.994 10.994 0 00-7.889 3.338l7.104 7.103L4 42.756 5.244 44l14.512-14.512.428.428A12 12 0 0132 20a12 12 0 013.008.393l1.494-1.495c.453.075.912.114 1.371.118A8.795 8.795 0 0044 16.53z" fill="#304878"/></symbol>
<symbol id="plus" viewBox="0 0 48 48"><path d="M10,4 38,24 10,44Z" fill="#304878"/></symbol>
<symbol id="pms" viewBox="0 0 48 48"><path d="M14.77 4c-2.615 0-4.616 2.001-4.616 4.615v7.356C8.214 15.298 6.104 14.77 4 14.77v3.076c2.007 0 4.027.68 6.154 1.394v2.885c-1.94-.673-4.05-1.201-6.154-1.201V24c2.007 0 4.027.68 6.154 1.395v2.835c-2-.66-4.075-1.154-6.154-1.154v3.078c2.007 0 4.027.68 6.154 1.395v7.836c0 2.614 2.001 4.615 4.616 4.615h18.46c2.615 0 4.616-2.001 4.616-4.615V35.55H34.77v3.834c0 .925-.614 1.539-1.54 1.539H14.77c-.926 0-1.54-.614-1.54-1.54V8.616c0-.925.614-1.539 1.54-1.539h18.46c.926 0 1.54.614 1.54 1.54v4.874h3.076V8.615C37.846 6.001 35.845 4 33.23 4H14.77zm15.384 10.77c-2.614 0-4.778.756-6.779 1.681-1.845.77-3.528 1.395-5.53 1.395-1.075 0-2-.174-3.075-.48v3.075c1.075.307 2 .483 3.076.483 2.614 0 4.633-.758 6.634-1.684 1.845-.613 3.673-1.394 5.674-1.394 2.152 0 4.134.781 6.442 1.394 2.307.77 4.79 1.684 7.404 1.684v-3.078c-2.055 0-3.973-.696-6.154-1.297-2.334-.84-5.12-1.766-7.692-1.78zm0 6.154c-2.614 0-4.778.756-6.779 1.681-1.845.77-3.528 1.395-5.53 1.395-1.075 0-2-.174-3.075-.48v3.076c1.075.306 2 .48 3.076.48 2.614 0 4.633-.756 6.634-1.681 1.845-.77 3.523-1.395 5.674-1.395 2.152 0 4.134.781 6.442 1.395 2.307.769 4.79 1.681 7.404 1.681V24c-2.151 0-4.134-.782-6.441-1.395-2.308-.925-4.79-1.681-7.405-1.681zm0 6.152c-2.614 0-4.778.758-6.779 1.684-1.845.769-3.528 1.394-5.53 1.394-1.075 0-2-.174-3.075-.48v3.076c1.075.306 2 .48 3.076.48 2.614 0 4.633-.756 6.634-1.681 1.845-.77 3.523-1.395 5.674-1.395 2.152 0 4.134.782 6.442 1.395 2.307.77 4.79 1.681 7.404 1.681v-3.076c-2.151 0-4.134-.781-6.441-1.394-2.308-.926-4.79-1.684-7.405-1.684z" fill="#304878"/></symbol>
<symbol id="power" viewBox="0 0 48 48"><path d="M31.316 9.783l-1.828 3.555C33.352 15.33 36 19.353 36 24c0 6.627-5.373 12-12 12-6.64 0-12-5.373-12-12 0-4.617 2.614-8.618 6.438-10.625L16.581 9.83C11.482 12.505 8 17.843 8 24c0 8.836 7.147 16 16 16 8.836 0 16-7.164 16-16 0-6.197-3.53-11.56-8.684-14.217z" fill="#304878"/><path fill="#304878" d="M22 4h4v20h-4z"/></symbol>
<symbol id="pwmout" viewBox="0 0 48 48"><path d="M24 16a8 8 0 0 0-7.734 6H4v4h12.26A8 8 0 0 0 24 32v-4a4 4 0 0 1-4-4 4 4 0 0 1 4-4v-4zM38 18v4h-8v4h8v4l6-6-6-6z" fill="#304878"/></symbol>
<symbol id="radio" viewBox="0 0 48 48"><path fill="#304878" class="object" d="M6.47 12.3C5.02 12.87 4 14.33 4 16v24c0 2.21 1.79 4 4 4h32c2.21 0 4-1.79 4-4V16c0-2.21-1.79-4-4-4H16.61l16.53-6.67L31.76 2zM14 40c-3.31 0-6-2.69-6-6s2.69-6 6-6 6 2.69 6 6-2.69 6-6 6zm26-16H8v-8h32z"/></symbol>
<symbol id="reload"><path d="M24 4v4a16 16 0 0116 16 16 16 0 01-16 16A16 16 0 018 24a16 16 0 012.371-8.38l2.406 2.788 1.813-5.205L16.4 8l-5.412 1.033-5.412 1.033 2.08 2.409A20 20 0 004 24a20 20 0 0020 20 20 20 0 0020-20A20 20 0 0024 4z" fill="white"/></symbol>
<symbol id="remote" viewBox="0 0 48 48"><path fill="#304878" d="M32 4v2h.4c5.319 0 9.6 4.281 9.6 9.6v.4h2v-.8C44 8.993 39.006 4 32.8 4H32zm0 4v2c3.324 0 6 2.676 6 6h2c0-4.432-3.568-8-8-8zm0 4v2c1.108 0 2 .892 2 2h2c0-2.216-1.784-4-4-4zm-19.313.688A15.949 15.949 0 0 0 8 24c0 8.836 7.147 16 16 16 4.418 0 8.417-1.792 11.313-4.688l-4.604-4.603V19.865A1.996 1.996 0 0 0 30 16c-.854 0-1.579.537-1.865 1.291H17.29l-4.604-4.604zm6.022 6.021h9.426c.202.533.623.954 1.156 1.156v9.426L18.709 18.709z"/></symbol>
<symbol id="rfsend" viewBox="0 0 48 48"><path fill="#304878" d="M32 4v2h.4c5.32 0 9.6 4.28 9.6 9.6v.4h2v-.799A11.174 11.174 0 0 0 32.8 4H32zm0 4v2c3.324 0 6 2.676 6 6h2c0-4.432-3.568-8-8-8zm-6.533 3.115c-.763-.045-1.508.198-2.051.74l-18.67 18.67c-1.085 1.086-.973 2.984.248 4.205l8.276 8.276c1.22 1.221 3.12 1.333 4.205.248l18.67-18.67c1.085-1.086.973-2.984-.249-4.205l-8.275-8.275a3.347 3.347 0 0 0-2.154-.989zm.113 1.926c.26.015.528.135.748.355l8.276 8.276c.44.44.518 1.106.126 1.498L16.06 41.84c-.391.392-1.057.314-1.497-.127l-8.276-8.276c-.44-.44-.478-1.065-.086-1.457l18.67-18.67a.911.911 0 0 1 .71-.269zm-5.812 8.979a2 2 0 0 0-1.444.585 2 2 0 0 0 0 2.829 2 2 0 0 0 2.828 0 2 2 0 0 0 0-2.829 2 2 0 0 0-1.384-.585zm-4.243 4.242a2 2 0 0 0-1.443.586 2 2 0 0 0 0 2.828 2 2 0 0 0 2.828 0 2 2 0 0 0 0-2.828 2 2 0 0 0-1.385-.586zm8.485 0a2 2 0 0 0-1.444.586 2 2 0 0 0 0 2.828 2 2 0 0 0 2.829 0 2 2 0 0 0 0-2.828 2 2 0 0 0-1.385-.586zM11.28 30.504a2 2 0 0 0-1.443.586 2 2 0 0 0 0 2.828 2 2 0 0 0 2.83 0 2 2 0 0 0 0-2.828 2 2 0 0 0-1.387-.586zm8.487 0a2 2 0 0 0-1.444.586 2 2 0 0 0 0 2.828 2 2 0 0 0 2.828 0 2 2 0 0 0 0-2.828 2 2 0 0 0-1.384-.586zm-4.243 4.244a2 2 0 0 0-1.443.584 2 2 0 0 0 0 2.83 2 2 0 0 0 2.828 0 2 2 0 0 0 0-2.83 2 2 0 0 0-1.385-.584z"/></symbol>
<symbol id="rotary" viewBox="0 0 48 48"><path d="M24 8C15.164 8 8 15.164 8 24s7.147 16 16 16c8.836 0 16-7.164 16-16S32.836 8 24 8zm0 4c6.627 0 12 5.373 12 12s-5.373 12-12 12c-6.64 0-12-5.373-12-12s5.373-12 12-12z" fill="#304878"/><path d="M30.679 15.2l-6.994 6.994 2.121 2.12 6.994-6.993z" fill="#304878"/></symbol>
<symbol id="schedule" viewBox="0 0 48 48"><path d="M22 2v2.1A20 20 0 0 0 4 24a20 20 0 0 0 20 20 20 20 0 0 0 20-20A20 20 0 0 0 26 4.121V2h-4zm-12.344.344L4 8l2.828 2.828 5.656-5.656-2.828-2.828zm28.688 0l-2.828 2.828 5.656 5.656L44 8l-5.656-5.656zM26 8.14A16 16 0 0 1 39.854 22H38v4h1.86A16 16 0 0 1 26 39.854V38h-4v1.86A16 16 0 0 1 8.146 26H10v-4H8.14A16 16 0 0 1 22 8.146V10h4V8.14zm-3.5 3.892v13.332L33.055 31.7l1.668-2.732-8.891-5.268V12.033H22.5z" fill="#364d7a"/></symbol>
<symbol id="serialcmd" viewBox="0 0 48 48"><path d="M8 10c-2.216 0-4 1.784-4 4v20c0 2.216 1.784 4 4 4h32c2.216 0 4-1.784 4-4V14c0-2.216-1.784-4-4-4zm2 4h28c1.108 0 2 .892 2 2v16c0 1.108-.892 2-2 2H10c-1.108 0-2-.892-2-2V16c0-1.108.892-2 2-2z" fill="#304878"/><text style="line-height:25px;-inkscape-font-specification:Arial" x="9.484" y="31.87" font-weight="400" font-size="10.667" font-family="Arial" letter-spacing="0" word-spacing="0"><tspan x="9.484" y="31.87">)___</tspan></text></symbol>
<symbol id="socket" viewBox="0 0 48 48"><path fill="#304878" d="M8.762 4A4.772 4.772 0 0 0 4 8.762v30.476A4.772 4.772 0 0 0 8.762 44h30.476A4.772 4.772 0 0 0 44 39.238V8.762A4.772 4.772 0 0 0 39.238 4zm0 1.904h30.476a2.83 2.83 0 0 1 2.858 2.858v30.476a2.83 2.83 0 0 1-2.858 2.858H8.762a2.83 2.83 0 0 1-2.858-2.858V8.762a2.83 2.83 0 0 1 2.858-2.858zM29.75 20.75A3.261 3.261 0 0 0 26.5 24a3.261 3.261 0 0 0 3.25 3.25A3.261 3.261 0 0 0 33 24a3.261 3.261 0 0 0-3.25-3.25zm0 1.5c.975 0 1.75.775 1.75 1.75s-.775 1.75-1.75 1.75S28 24.975 28 24s.775-1.75 1.75-1.75zm-11.5-1.5A3.261 3.261 0 0 0 15 24a3.261 3.261 0 0 0 3.25 3.25A3.261 3.261 0 0 0 21.5 24a3.261 3.261 0 0 0-3.25-3.25zm0 1.5c.975 0 1.75.775 1.75 1.75s-.775 1.75-1.75 1.75-1.75-.775-1.75-1.75.775-1.75 1.75-1.75zM22.5 9.074c-.508.05-1.008.127-1.5.227C14.16 10.694 9 16.754 9 24c0 7.24 5.15 13.295 11.98 14.695l.02.004c.492.1.992.176 1.5.227V34.5h3v4.426c.508-.05 1.008-.127 1.5-.227C33.84 37.306 39 31.246 39 24c0-7.246-5.16-13.306-12-14.7-.492-.1-.992-.175-1.5-.226V13.5h-3V9.074zM21 11.117V15h6v-3.883C32.868 12.475 37.234 17.714 37.234 24c0 6.286-4.366 11.525-10.234 12.883V33h-6v3.883C15.132 35.525 10.766 30.286 10.766 24c0-6.286 4.366-11.525 10.234-12.883z"/></symbol>
<symbol id="ssdp" viewBox="0 0 48 48"><path d="M16 2v2h.4c5.32 0 9.6 4.281 9.6 9.6v.4h2v-.8C28 6.993 23.006 2 16.8 2zm0 4v2c3.324 0 6 2.676 6 6h2c0-4.432-3.568-8-8-8zm-5 4c-1.662 0-3 1.338-3 3v6c0 1.662 1.338 3 3 3h2v4H4v2h5v4.09A5.998 5.998 0 0 0 10 44a5.998 5.998 0 1 0 1-11.91V28h12v4.09A5.998 5.998 0 0 0 24 44a5.998 5.998 0 1 0 1-11.91V28h12v4.09A5.998 5.998 0 0 0 38 44a5.998 5.998 0 1 0 1-11.91V28h5v-2H15v-4h2c1.662 0 3-1.338 3-3v-6c0-1.662-1.338-3-3-3zm1 2h4c1.108 0 2 .892 2 2v4c0 1.108-.892 2-2 2h-4c-1.108 0-2-.892-2-2v-4c0-1.108.892-2 2-2zm-2 22a4 4 0 1 1 0 8 4 4 0 0 1 0-8zm14 0a4 4 0 1 1 0 8 4 4 0 0 1 0-8zm14 0a4 4 0 1 1 0 8 4 4 0 0 1 0-8z" fill="#304878"/></symbol>
<symbol id="start" viewBox="0 0 48 48"><path d="M 10,4 38,24 10,44 Z" fill="green"/></symbol>
<symbol id="stop" viewBox="0 0 48 48"><path d="M12 12h24v24H12z" fill="#aaaaaa"/></symbol>
<symbol id="switch" viewBox="0 0 48 48"><circle cx="16" cy="24" r="8" fill="#304878"/><path d="M16 12A12 12 0 0 0 4 24a12 12 0 0 0 12 12h16a12 12 0 0 0 12-12 12 12 0 0 0-12-12zm.8 2h14.4A10.8 10 0 0 1 42 24a10.8 10 0 0 1-10.8 10H16.8A10.8 10 0 0 1 6 24a10.8 10 0 0 1 10.8-10z" fill="#304878"/></symbol>
<symbol id="time" viewBox="0 0 48 48"><path d="M25.111 12.889h-3.333v13.333l10.555 6.334L34 29.822l-8.889-5.266zM24 4C12.956 4 4 12.956 4 24s8.933 20 20 20c11.044 0 20-8.956 20-20S35.044 4 24 4zm0 35.556C15.4 39.556 8.444 32.6 8.444 24 8.444 15.4 15.4 8.444 24 8.444c8.6 0 15.556 6.956 15.556 15.556 0 8.6-6.956 15.556-15.556 15.556z" fill="#304878"/></symbol>
<symbol id="timer" viewBox="0 0 48 48"><path d="M24 4C12.956 4 4 12.956 4 24c0 10.37 7.894 18.897 18 19.9l2 .1h2v-8h-4v3.412A15.526 15.526 0 0 1 8.588 26H12v-4H8.588c.89-6.916 6.309-12.382 13.19-13.377V12h4.445V4zm11.979 3.979l-15.112 15.11L24 26.224l12.045-12.045A15.37 15.37 0 0 1 39.555 24a15.49 15.49 0 0 1-2.737 8.818L32 28v12h12l-4.01-4.01A19.848 19.848 0 0 0 44 24c0-6.556-3.155-12.334-8.021-15.979z" fill="#304878"/></symbol>
<symbol id="value" viewBox="0 0 48 48"><path fill="#304878" d="M12.88 38.513H9.5q-2.61-2.994-4.056-6.534Q4 28.44 4 24q0-4.44 1.445-7.98 1.446-3.54 4.056-6.533h3.378v.147q-1.195 1.077-2.286 2.493-1.077 1.401-2.006 3.274-.885 1.814-1.445 3.997-.546 2.183-.546 4.602 0 2.522.53 4.617.547 2.094 1.461 3.982.885 1.814 2.02 3.274 1.136 1.475 2.272 2.493zM32.068 32.437h-3.496l-4.675-6.328-4.705 6.328h-3.23l6.43-8.216-6.371-8.26h3.495l4.646 6.225 4.661-6.224h3.245l-6.475 8.112zM44 24q0 4.44-1.445 7.98-1.446 3.54-4.056 6.533H35.12v-.147q1.136-1.018 2.271-2.493 1.15-1.46 2.021-3.274.914-1.888 1.445-3.982.546-2.095.546-4.617 0-2.419-.546-4.602-.545-2.183-1.445-3.997-.93-1.873-2.02-3.274-1.077-1.416-2.272-2.493v-.147h3.378q2.61 2.994 4.056 6.534Q44 19.56 44 24z"/></symbol>
<symbol id="washing" viewBox="0 0 48 48"><path d="M24 4c-15.702 0-16.33.008-16.8.168a4.721 4.721 0 00-3.063 3.27C4.017 7.9 4 4.595 4 21.23c0 20.772-.038 19.309.553 20.42.628 1.181 2.002 2.146 3.314 2.325.147.02 7.527.028 16.4.023L40.4 43.99l.508-.195c1.517-.581 2.575-1.723 2.957-3.193.12-.463.135-2.736.135-19.372 0-16.635-.015-13.33-.135-13.793a4.724 4.724 0 00-3.064-3.269C40.33 4.008 39.702 4 24 4zM9.5 8A1.5 1.5 0 0111 9.5 1.5 1.5 0 019.5 11 1.5 1.5 0 018 9.5 1.5 1.5 0 019.5 8zm5 0A1.5 1.5 0 0116 9.5a1.5 1.5 0 01-1.5 1.5A1.5 1.5 0 0113 9.5 1.5 1.5 0 0114.5 8zm9.5 3.506a12.546 12.572 0 0112.385 10.607c-.118-.034-.234-.072-.354-.101a8.965 8.965 0 00-2.894-.242c-1.345.11-2.367.57-3.272.72l-.027.004-.027.006c-1.989.435-2.69.648-5.873.648-2.86 0-6.139-1.65-9.186-1.652-1.118 0-2.17.17-3.094.395A12.546 12.572 0 0124 11.506zM14.752 23.73c2.092.002 5.569 1.653 9.187 1.653 3.262 0 4.374-.27 6.293-.69 1.265-.21 2.217-.625 3.088-.697h.002c.73-.06 1.469.012 2.172.186.356.087.7.201 1.03.336A12.546 12.572 0 0124 36.648a12.546 12.572 0 01-12.54-12.38c.96-.29 2.092-.538 3.292-.538z" fill="#304878"/></symbol>
<symbol id="weatherfeed" viewBox="0 0 48 48"><path d="M11.17 36c-3.309-.203-6.225-3.64-6.15-7.42-.152-3.55 2.98-6.43 7.29-6.65.05-4.364 2.79-10.21 10.09-9.69 3.85.13 7.29 2.97 8.46 6.6 3.05-.9 6.58-.45 9.02 1.7 3.53 2.82 4.17 8.51 1.27 12-1.76 2.27-4.736 3.447-7.52 3.46z" fill="#304878"/></symbol></svg>