<svg xmlns="http://www.w3.org/2000/svg" viewBox="0 0 48 48"><rect width="48" height="48" fill="#d4dced" opacity="1" rx="8"/><path fill="#304878" d="M18 8c-4.087.003-5.537 5.413-2 7.46V18h-6c-2.216 0-4 1.784-4 4v16c0 2.216 1.784 4 4 4h16c2.216 0 4-1.784 4-4v-6h2.54c2.047 3.537 7.457 2.087 7.46-2-.003-4.087-5.413-5.537-7.46-2H30v-6c0-2.216-1.784-4-4-4h-6v-2.541A4 4 0 0 0 22 12a4 4 0 0 0-4-4zm0 2c2.667 0 2.667 4 0 4s-2.667-4 0-4zm-6 12h12c1.108 0 2 .892 2 2v12c0 1.108-.892 2-2 2H12c-1.108 0-2-.892-2-2V24c0-1.108.892-2 2-2zm24 6c1.1 0 2 .9 2 2s-.9 2-2 2-2-.9-2-2 .9-2 2-2z"/></svg>