<?xml version="1.0" encoding="UTF-8" standalone="no"?>
<svg
   xmlns:dc="http://purl.org/dc/elements/1.1/"
   xmlns:cc="http://creativecommons.org/ns#"
   xmlns:rdf="http://www.w3.org/1999/02/22-rdf-syntax-ns#"
   xmlns:svg="http://www.w3.org/2000/svg"
   xmlns="http://www.w3.org/2000/svg"
   xmlns:sodipodi="http://sodipodi.sourceforge.net/DTD/sodipodi-0.dtd"
   xmlns:inkscape="http://www.inkscape.org/namespaces/inkscape"
   width="48"
   height="48"
   version="1.1"
   id="svg4"
   sodipodi:docname="icon.svg"
   inkscape:version="0.92.2 (5c3e80d, 2017-08-06)">
  <metadata
     id="metadata10">
    <rdf:RDF>
      <cc:Work
         rdf:about="">
        <dc:format>image/svg+xml</dc:format>
        <dc:type
           rdf:resource="http://purl.org/dc/dcmitype/StillImage" />
      </cc:Work>
    </rdf:RDF>
  </metadata>
  <defs
     id="defs8" />
  <sodipodi:namedview
     pagecolor="#ffffff"
     bordercolor="#666666"
     borderopacity="1"
     objecttolerance="10"
     gridtolerance="10"
     guidetolerance="10"
     inkscape:pageopacity="0"
     inkscape:pageshadow="2"
     inkscape:window-width="1920"
     inkscape:window-height="1017"
     id="namedview6"
     showgrid="false"
     inkscape:zoom="4.9166667"
     inkscape:cx="-7.4237288"
     inkscape:cy="24"
     inkscape:window-x="1358"
     inkscape:window-y="-8"
     inkscape:window-maximized="1"
     inkscape:current-layer="svg4" />
  <path
     d="M 13.5,4 C 11.007,4 9.361848,6.3467822 9,9.209 V 10 h 3 V 8.736 C 12,7.775 12.669,7 13.5,7 14.331,7 15,7.775 15,8.736 v 21.479 c 2.364301,0.670214 3.997094,2.827542 4,5.285 C 19,38.537566 16.537566,41 13.5,41 10.462434,41 8,38.537566 8,35.5 8.0006719,33.040688 9.6339168,30.880721 12,30.21 V 28 H 9 v 0.3 c -2.4847448,1.550571 -3.9961728,4.271141 -4,7.2 0,4.69442 3.8055796,8.5 8.5,8.5 4.69442,0 8.5,-3.80558 8.5,-8.5 -0.0021,-2.930637 -1.513749,-5.653486 -4,-7.205 V 9.209 C 18,6.324 15.993,4 13.5,4 Z M 9,12 h 3 v 2 H 9 Z m 0,4 h 3 v 2 H 9 Z m 0,4 h 3 v 2 H 9 Z m 0,4 h 3 v 2 H 9 Z m 26.0815,15.077 c -2.584,-0.733 -4.028,-2.736 -4.08,-5.663 -0.028,-1.54 0.312,-2.325 2.325,-5.367 1.654,-2.5 2.635,-4.361 3.233,-6.138 l 0.413,-1.227 0.31,1 c 0.507,1.63 1.616,3.746 3.314,6.32 2.407,3.649 2.716,4.633 2.175,6.932 -0.454,1.93 -1.65,3.37 -3.27,3.941 -1.083,0.382 -3.41,0.489 -4.42,0.202 z m -9.971,-17.343 c -1.037,-0.471 -1.704,-1.327 -1.974,-2.532 -0.32,-1.431 -0.137,-2.073 1.16,-4.077 1.298,-2.005 2.6,-4.56 2.614,-5.132 0.006,-0.212 0.202,0.13 0.436,0.762 0.456,1.226 1.072,2.356 2.186,4.013 1.312,1.953 1.553,2.584 1.444,3.79 -0.135,1.48 -0.82,2.622 -1.88,3.135 -1.052,0.51 -2.913,0.528 -3.986,0.04 z"
     id="path2"
     inkscape:connector-curvature="0"
     style="fill:#304878;stroke-width:0"
     sodipodi:nodetypes="ssccsssccsccccccsccsscccccccccccccccccccccccccccccccccccccccc" />
</svg>
