<svg xmlns="http://www.w3.org/2000/svg" viewBox="0 0 48 48">
  <path fill="#304878" d="M13.5 4C11.007 4 9.362 6.347 9 9.209V10h3V8.736C12 7.775 12.669 7 13.5 7s1.5.775 1.5 1.736v21.479a5.5 5.5 0 014 5.285 5.5 5.5 0 11-7-5.29V28H9v.3a8.5 8.5 0 00-4 7.2 8.5 8.5 0 0017 0 8.5 8.5 0 00-4-7.205V9.209C18 6.324 15.993 4 13.5 4z"/>
  <path fill="#304878" d="M9 12h3v2H9zM9 16h3v2H9zM9 20h3v2H9zM9 24h3v2H9zM24.846 15.403c-1.038-.471-1.705-1.327-1.975-2.532-.32-1.431-.137-2.073 1.16-4.077 1.298-2.005 2.6-4.56 2.614-5.132.006-.212.202.13.436.762.456 1.226 1.072 2.356 2.186 4.013 1.312 1.953 1.553 2.584 1.444 3.79-.135 1.48-.82 2.622-1.88 3.135-1.052.51-2.913.528-3.986.04z"/>
  <path fill="#304878" d="M35.321 12.126l-.262.777c-.378 1.127-1 2.307-2.048 3.892-1.276 1.93-1.49 2.428-1.473 3.405.033 1.856.949 3.127 2.586 3.592.027.007.072.008.101.015-.448-.57-.978-1.82-.943-2.72.06-1.525.879-3.114.879-3.114s.267 2.568.902 2.53c.84-.026.217-3.903.217-3.903s2.075 2.376 1.983 4.055c-.083 1.497-1.604 2.923-1.95 3.23.596-.012 1.224-.084 1.61-.22 1.026-.362 1.784-1.276 2.072-2.5.343-1.458.147-2.083-1.377-4.397-1.076-1.632-1.778-2.974-2.1-4.008z"/>
  <path fill="#304878" d="M40.345 24.56a.715.715 0 00-.076.001.715.715 0 00-.567.352l-3.728 6.139a2.692 2.692 0 00-1.947-.616 3.651 3.651 0 00-3.374-2.216c-1.936 0-3.499 1.462-3.623 3.302-.611.132-1.137.346-1.515.69-.418.379-.657.905-.664 1.517-.008.634.298 1.18.77 1.541.47.362 1.1.557 1.782.557h5.668l-4.728 7.785a.715.715 0 101.22.742l2.33-3.836a.674.674 0 00.135-.093l1.118-1.118a.606.606 0 00.007-.859l.42-.693c.506.59 1.247.97 2.082.97a2.78 2.78 0 002.774-2.773 2.777 2.777 0 00-2.127-2.69l4.623-7.607a.715.715 0 00-.58-1.096zm-.656 6.726a.603.603 0 00-.426.184l-1.117 1.117c-.533.573.286 1.392.86.86l1.116-1.116a.608.608 0 00-.433-1.045zm.1 4.072c-.783.028-.783 1.189 0 1.217h1.58c.81 0 .81-1.217 0-1.217zM27.71 37.102l-.844 1.774zm10.848 1.178c-.448.033-.808.602-.408 1.031l1.115 1.116c.574.573 1.435-.286.861-.86L39.01 38.45a.589.589 0 00-.451-.17zm-2.928 1.213v.002a.607.607 0 00-.598.615v1.58c.029.782 1.189.782 1.217 0v-1.58a.61.61 0 00-.619-.617z"/>
</svg>
