<svg xmlns="http://www.w3.org/2000/svg" viewBox="0 0 48 48">
    <path fill="#304878" d="M24 4c-2.473 0-3.603.254-5.717 1.29-2.03.993-3.885 2.842-4.847 4.83-.9 1.856-1.286 3.77-1.153 5.71.186 2.706.904 4.636 3.31 8.918 1.882 3.347 2.617 5.041 2.776 6.389.06.508.064 1.245.1 1.361h3.394l-.103-1.252c-.19-2.24-.798-3.68-4.051-9.61-1.829-3.333-2.408-5.711-1.955-8.019.734-3.74 4.124-6.351 8.246-6.351 4.122 0 7.512 2.611 8.246 6.351.453 2.308-.126 4.686-1.955 8.02-3.255 5.933-3.861 7.37-4.05 9.617l-.106 1.244h3.33l.133-1.184c.17-1.517.878-3.132 2.808-6.566 2.407-4.282 3.125-6.212 3.31-8.918.134-1.94-.252-3.854-1.152-5.71-.962-1.988-2.818-3.837-4.847-4.83C27.603 4.253 26.473 4 24 4zm-5.531 29.912v2.018h11.097v-2.018H18.47zm0 4.035v2.018h11.097v-2.018H18.47zm1.888 4.035c.88 1.01 1.612 1.798 1.914 2.018h3.606l.762-.842c.36-.398.7-.801 1.017-1.176h-7.299z"/>
</svg>
