<svg xmlns="http://www.w3.org/2000/svg" viewBox="0 0 48 48">
      <path fill="#304878" class="object" d="m 39.28,25.96 c 0.08,-0.64 0.14,-1.28 0.14,-1.96 0,-0.68 -0.062,-1.32 -0.14,-1.96   l 4.34,-3.3 c 0.39,-0.3 0.49,-0.84 0.25,-1.28 L 39.75,10.54 C 39.51,10.1 38.95,9.94 38.50,10.1  l -5.12,2 C 32.32,11.3 31.16,10.64 29.91,10.14 L 29.12,4.84 C 29.06,4.36 28.63,4 28.12,4 L 19.89,4   C 19.38,4 18.95,4.36 18.88,4.84 l -0.78,5.3 c -1.25,0.5 -2.41,1.18 -3.48,1.96 l -5.12,-2 c -0.47,-0.18 -1.01,0 -1.25,0.44 l -4.11,6.92 c -0.27,0.44 -0.14,0.98 0.25,1.28 l 4.34,3.3  c -0.08,0.64 -0.15,1.3 -0.14,1.96 0,0.66 0.06,1.32 0.14,1.96 l -4.34,3.3 c -0.39,0.3 -0.49,0.84 -0.25,1.28 l 4.11,6.92 c 0.25,0.44 0.80,0.6 1.25,0.44 l 5.11,-2  c 1.07,0.8 2.22,1.46 3.47,1.96 l 0.78,5.3 c 0.06,0.48 0.49,0.84 1.00,0.84 l 8.22,0 c 0.51,0 0.95,-0.36 1.01,-0.84 l 0.78,-5.3 c 1.25,-0.5 2.41,-1.18 3.47,-1.96 l 5.12,2  c 0.47,0.18 1.01,0 1.25,-0.44 l 4.11,-6.92 c 0.25,-0.44 0.14,-0.98 -0.25,-1.28 l -4.34,-3.3 z  M 24.00,31 c -3.97,0 -7.2,-3.14 -7.20,-7 0,-3.86 3.23,-7 7.20,-7 3.97,0 7.20,3.14 7.20,7 0,3.86 -3.22,7 -7.20,7 z" />
</svg>
