<svg xmlns="http://www.w3.org/2000/svg" viewBox="0 0 48 48">
  <path d="M13.5 4C11.007 4 9.362 6.347 9 9.209V10h3V8.736C12 7.775 12.669 7 13.5 7s1.5.775 1.5 1.736v21.479a5.5 5.5 0 0 1 4 5.285 5.5 5.5 0 1 1-7-5.29V28H9v.3a8.5 8.5 0 0 0-4 7.2 8.5 8.5 0 0 0 17 0 8.5 8.5 0 0 0-4-7.205V9.209C18 6.324 15.993 4 13.5 4zM9 12h3v2H9zm0 4h3v2H9zm0 4h3v2H9zm0 4h3v2H9zm26.081 15.077c-2.584-.733-4.028-2.736-4.08-5.663-.028-1.54.312-2.325 2.325-5.367 1.655-2.5 2.636-4.361 3.234-6.138l.412-1.227.31 1c.508 1.63 1.617 3.746 3.315 6.32 2.406 3.649 2.715 4.633 2.174 6.932-.454 1.93-1.65 3.37-3.27 3.941-1.083.382-3.41.489-4.42.202zm-9.97-17.343c-1.038-.471-1.705-1.327-1.975-2.532-.32-1.431-.137-2.073 1.16-4.077 1.298-2.005 2.6-4.56 2.614-5.132.006-.212.202.13.436.762.456 1.226 1.072 2.356 2.186 4.013 1.312 1.953 1.553 2.584 1.444 3.79-.135 1.48-.82 2.622-1.88 3.135-1.052.51-2.913.528-3.986.04z" fill="#304878"/>
</svg>
