<svg xmlns="http://www.w3.org/2000/svg" version="1.1" viewBox="0 0 48 48">
    <path style="fill:#4060a0;fill-opacity:1;stroke:none" d="M 8,4 V 43 C 8,43 16,40 18,40 c 4,0 8,4 12,4 2,0 10,-2.85 10,-2.85 V 4 Z m 4,4 H 36 V 38.75 C 36,38.75 32,40 30,40 c -4,0 -8,-4 -12,-4 -2,0 -6,1 -6,1 z M 16,12 v 2 h 4 v -2 z m 6,0 v 2 h 8 v -2 z m -6,4 v 2 h 4 v -2 z m 6,0 v 2 h 6 v -2 z m -6,4 v 2 h 4 v -2 z m 6,0 v 2 h 10 v -2 z m -6,4 v 2 h 4 v -2 z m 6,0 v 2 h 6 v -2 z m -6,4 v 2 h 4 v -2 z m 6,0 v 2 h 10 v -2 z"/>
</svg>
