<svg xmlns="http://www.w3.org/2000/svg" viewBox="0 0 48 48">
   <path d="M32 22a10 10 0 00-10 10 10 10 0 0010 10 10 10 0 0010-10 10 10 0 00-10-10zm0 2a8 8 0 018 8 8 8 0 01-1.688 4.898L27.099 25.684A8 8 0 0132 24zm-6.313 3.102l11.215 11.214A8 8 0 0132 40a8 8 0 01-8-8 8 8 0 011.688-4.898z" fill="#304878"/>
   <path d="M31.563 4.096a8.795 8.795 0 00-2.485 6.125c.004.366.03.732.08 1.095l-6.904 6.903a10.994 10.994 0 00-2.957-.416 10.994 10.994 0 00-7.889 3.338l7.104 7.103L4 42.756 5.244 44l14.512-14.512.428.428A12 12 0 0132 20a12 12 0 013.008.393l1.494-1.495c.453.075.912.114 1.371.118A8.795 8.795 0 0044 16.53z" fill="#304878"/>
</svg>
