<svg xmlns="http://www.w3.org/2000/svg" viewBox="0 0 48 48">
<path d="M14.77 4c-2.615 0-4.616 2.001-4.616 4.615v7.356C8.214 15.298 6.104 14.77 4 14.77v3.076c2.007 0 4.027.68 6.154 1.394v2.885c-1.94-.673-4.05-1.201-6.154-1.201V24c2.007 0 4.027.68 6.154 1.395v2.835c-2-.66-4.075-1.154-6.154-1.154v3.078c2.007 0 4.027.68 6.154 1.395v7.836c0 2.614 2.001 4.615 4.616 4.615h18.46c2.615 0 4.616-2.001 4.616-4.615V35.55H34.77v3.834c0 .925-.614 1.539-1.54 1.539H14.77c-.926 0-1.54-.614-1.54-1.54V8.616c0-.925.614-1.539 1.54-1.539h18.46c.926 0 1.54.614 1.54 1.54v4.874h3.076V8.615C37.846 6.001 35.845 4 33.23 4H14.77zm15.384 10.77c-2.614 0-4.778.756-6.779 1.681-1.845.77-3.528 1.395-5.53 1.395-1.075 0-2-.174-3.075-.48v3.075c1.075.307 2 .483 3.076.483 2.614 0 4.633-.758 6.634-1.684 1.845-.613 3.673-1.394 5.674-1.394 2.152 0 4.134.781 6.442 1.394 2.307.77 4.79 1.684 7.404 1.684v-3.078c-2.055 0-3.973-.696-6.154-1.297-2.334-.84-5.12-1.766-7.692-1.78zm0 6.154c-2.614 0-4.778.756-6.779 1.681-1.845.77-3.528 1.395-5.53 1.395-1.075 0-2-.174-3.075-.48v3.076c1.075.306 2 .48 3.076.48 2.614 0 4.633-.756 6.634-1.681 1.845-.77 3.523-1.395 5.674-1.395 2.152 0 4.134.781 6.442 1.395 2.307.769 4.79 1.681 7.404 1.681V24c-2.151 0-4.134-.782-6.441-1.395-2.308-.925-4.79-1.681-7.405-1.681zm0 6.152c-2.614 0-4.778.758-6.779 1.684-1.845.769-3.528 1.394-5.53 1.394-1.075 0-2-.174-3.075-.48v3.076c1.075.306 2 .48 3.076.48 2.614 0 4.633-.756 6.634-1.681 1.845-.77 3.523-1.395 5.674-1.395 2.152 0 4.134.782 6.442 1.395 2.307.77 4.79 1.681 7.404 1.681v-3.076c-2.151 0-4.134-.781-6.441-1.394-2.308-.926-4.79-1.684-7.405-1.684z" fill="#304878"/>
</svg>
