<svg xmlns="http://www.w3.org/2000/svg" viewBox="0 0 48 48">
    <path fill="#304878" d="M32 4v2h.4c5.319 0 9.6 4.281 9.6 9.6v.4h2v-.8C44 8.993 39.006 4 32.8 4H32zm0 4v2c3.324 0 6 2.676 6 6h2c0-4.432-3.568-8-8-8zm0 4v2c1.108 0 2 .892 2 2h2c0-2.216-1.784-4-4-4zm-19.313.688A15.949 15.949 0 0 0 8 24c0 8.836 7.147 16 16 16 4.418 0 8.417-1.792 11.313-4.688l-4.604-4.603V19.865A1.996 1.996 0 0 0 30 16c-.854 0-1.579.537-1.865 1.291H17.29l-4.604-4.604zm6.022 6.021h9.426c.202.533.623.954 1.156 1.156v9.426L18.709 18.709z"/>
</svg>
