<svg xmlns="http://www.w3.org/2000/svg" viewBox="0 0 48 48">
  <path fill="#304878"
  d="M32 4v2h.4c5.32 0 9.6 4.28 9.6 9.6v.4h2v-.799A11.174 11.174 0 0 0 32.8 4H32zm0 4v2c3.324 0 6 2.676 6 6h2c0-4.432-3.568-8-8-8zm-6.533 3.115c-.763-.045-1.508.198-2.051.74l-18.67 18.67c-1.085 1.086-.973 2.984.248 4.205l8.276 8.276c1.22 1.221 3.12 1.333 4.205.248l18.67-18.67c1.085-1.086.973-2.984-.249-4.205l-8.275-8.275a3.347 3.347 0 0 0-2.154-.989zm.113 1.926c.26.015.528.135.748.355l8.276 8.276c.44.44.518 1.106.126 1.498L16.06 41.84c-.391.392-1.057.314-1.497-.127l-8.276-8.276c-.44-.44-.478-1.065-.086-1.457l18.67-18.67a.911.911 0 0 1 .71-.269zm-5.812 8.979a2 2 0 0 0-1.444.585 2 2 0 0 0 0 2.829 2 2 0 0 0 2.828 0 2 2 0 0 0 0-2.829 2 2 0 0 0-1.384-.585zm-4.243 4.242a2 2 0 0 0-1.443.586 2 2 0 0 0 0 2.828 2 2 0 0 0 2.828 0 2 2 0 0 0 0-2.828 2 2 0 0 0-1.385-.586zm8.485 0a2 2 0 0 0-1.444.586 2 2 0 0 0 0 2.828 2 2 0 0 0 2.829 0 2 2 0 0 0 0-2.828 2 2 0 0 0-1.385-.586zM11.28 30.504a2 2 0 0 0-1.443.586 2 2 0 0 0 0 2.828 2 2 0 0 0 2.83 0 2 2 0 0 0 0-2.828 2 2 0 0 0-1.387-.586zm8.487 0a2 2 0 0 0-1.444.586 2 2 0 0 0 0 2.828 2 2 0 0 0 2.828 0 2 2 0 0 0 0-2.828 2 2 0 0 0-1.384-.586zm-4.243 4.244a2 2 0 0 0-1.443.584 2 2 0 0 0 0 2.83 2 2 0 0 0 2.828 0 2 2 0 0 0 0-2.83 2 2 0 0 0-1.385-.584z" />
</svg>
