<svg xmlns="http://www.w3.org/2000/svg" viewBox="0 0 48 48">
  <path fill="#304878" d="M8.762 4A4.772 4.772 0 0 0 4 8.762v30.476A4.772 4.772 0 0 0 8.762 44h30.476A4.772 4.772 0 0 0 44 39.238V8.762A4.772 4.772 0 0 0 39.238 4zm0 1.904h30.476a2.83 2.83 0 0 1 2.858 2.858v30.476a2.83 2.83 0 0 1-2.858 2.858H8.762a2.83 2.83 0 0 1-2.858-2.858V8.762a2.83 2.83 0 0 1 2.858-2.858zM29.75 20.75A3.261 3.261 0 0 0 26.5 24a3.261 3.261 0 0 0 3.25 3.25A3.261 3.261 0 0 0 33 24a3.261 3.261 0 0 0-3.25-3.25zm0 1.5c.975 0 1.75.775 1.75 1.75s-.775 1.75-1.75 1.75S28 24.975 28 24s.775-1.75 1.75-1.75zm-11.5-1.5A3.261 3.261 0 0 0 15 24a3.261 3.261 0 0 0 3.25 3.25A3.261 3.261 0 0 0 21.5 24a3.261 3.261 0 0 0-3.25-3.25zm0 1.5c.975 0 1.75.775 1.75 1.75s-.775 1.75-1.75 1.75-1.75-.775-1.75-1.75.775-1.75 1.75-1.75zM22.5 9.074c-.508.05-1.008.127-1.5.227C14.16 10.694 9 16.754 9 24c0 7.24 5.15 13.295 11.98 14.695l.02.004c.492.1.992.176 1.5.227V34.5h3v4.426c.508-.05 1.008-.127 1.5-.227C33.84 37.306 39 31.246 39 24c0-7.246-5.16-13.306-12-14.7-.492-.1-.992-.175-1.5-.226V13.5h-3V9.074zM21 11.117V15h6v-3.883C32.868 12.475 37.234 17.714 37.234 24c0 6.286-4.366 11.525-10.234 12.883V33h-6v3.883C15.132 35.525 10.766 30.286 10.766 24c0-6.286 4.366-11.525 10.234-12.883z"/>
</svg>
