<svg xmlns="http://www.w3.org/2000/svg" viewBox="0 0 48 48">
    <path d="M16 2v2h.4c5.32 0 9.6 4.281 9.6 9.6v.4h2v-.8C28 6.993 23.006 2 16.8 2zm0 4v2c3.324 0 6 2.676 6 6h2c0-4.432-3.568-8-8-8zm-5 4c-1.662 0-3 1.338-3 3v6c0 1.662 1.338 3 3 3h2v4H4v2h5v4.09A5.998 5.998 0 0 0 10 44a5.998 5.998 0 1 0 1-11.91V28h12v4.09A5.998 5.998 0 0 0 24 44a5.998 5.998 0 1 0 1-11.91V28h12v4.09A5.998 5.998 0 0 0 38 44a5.998 5.998 0 1 0 1-11.91V28h5v-2H15v-4h2c1.662 0 3-1.338 3-3v-6c0-1.662-1.338-3-3-3zm1 2h4c1.108 0 2 .892 2 2v4c0 1.108-.892 2-2 2h-4c-1.108 0-2-.892-2-2v-4c0-1.108.892-2 2-2zm-2 22a4 4 0 1 1 0 8 4 4 0 0 1 0-8zm14 0a4 4 0 1 1 0 8 4 4 0 0 1 0-8zm14 0a4 4 0 1 1 0 8 4 4 0 0 1 0-8z" fill="#304878"/>
</svg>
