<svg viewBox="0 0 48 48">
  <path fill="#304878" d="M33 4a11 11 0 00-11 11 11 11 0 00.25 2.266L5.764 33.752a5.986 5.986 0 000 8.484 5.986 5.986 0 008.484 0l16.479-16.478A11 11 0 0033 26a11 11 0 0011-11 11 11 0 00-2.244-6.635l-6.969 6.969-2.121-2.121 6.973-6.973A11 11 0 0033 4zm.068 2a9 9 0 013.338.645l-6.568 6.568 4.95 4.95 6.595-6.597A9 9 0 0142.068 15a9 9 0 01-9 9 9 9 0 01-2.916-.496L12.834 40.822a3.99 3.99 0 01-5.656 0 3.99 3.99 0 010-5.656L24.53 17.813A9 9 0 0124.068 15a9 9 0 019-9z"/>
</svg>
