<svg xmlns="http://www.w3.org/2000/svg" viewBox="0 0 48 48">
   <path fill="#304878" d="M12.88 38.513H9.5q-2.61-2.994-4.056-6.534Q4 28.44 4 24q0-4.44 1.445-7.98 1.446-3.54 4.056-6.533h3.378v.147q-1.195 1.077-2.286 2.493-1.077 1.401-2.006 3.274-.885 1.814-1.445 3.997-.546 2.183-.546 4.602 0 2.522.53 4.617.547 2.094 1.461 3.982.885 1.814 2.02 3.274 1.136 1.475 2.272 2.493zM32.068 32.437h-3.496l-4.675-6.328-4.705 6.328h-3.23l6.43-8.216-6.371-8.26h3.495l4.646 6.225 4.661-6.224h3.245l-6.475 8.112zM44 24q0 4.44-1.445 7.98-1.446 3.54-4.056 6.533H35.12v-.147q1.136-1.018 2.271-2.493 1.15-1.46 2.021-3.274.914-1.888 1.445-3.982.546-2.095.546-4.617 0-2.419-.546-4.602-.545-2.183-1.445-3.997-.93-1.873-2.02-3.274-1.077-1.416-2.272-2.493v-.147h3.378q2.61 2.994 4.056 6.534Q44 19.56 44 24z"/>
</svg>
