<svg xmlns="http://www.w3.org/2000/svg" viewBox="0 0 48 48">
   <path d="M24 4c-15.702 0-16.33.008-16.8.168a4.721 4.721 0 00-3.063 3.27C4.017 7.9 4 4.595 4 21.23c0 20.772-.038 19.309.553 20.42.628 1.181 2.002 2.146 3.314 2.325.147.02 7.527.028 16.4.023L40.4 43.99l.508-.195c1.517-.581 2.575-1.723 2.957-3.193.12-.463.135-2.736.135-19.372 0-16.635-.015-13.33-.135-13.793a4.724 4.724 0 00-3.064-3.269C40.33 4.008 39.702 4 24 4zM9.5 8A1.5 1.5 0 0111 9.5 1.5 1.5 0 019.5 11 1.5 1.5 0 018 9.5 1.5 1.5 0 019.5 8zm5 0A1.5 1.5 0 0116 9.5a1.5 1.5 0 01-1.5 1.5A1.5 1.5 0 0113 9.5 1.5 1.5 0 0114.5 8zm9.5 3.506a12.546 12.572 0 0112.385 10.607c-.118-.034-.234-.072-.354-.101a8.965 8.965 0 00-2.894-.242c-1.345.11-2.367.57-3.272.72l-.027.004-.027.006c-1.989.435-2.69.648-5.873.648-2.86 0-6.139-1.65-9.186-1.652-1.118 0-2.17.17-3.094.395A12.546 12.572 0 0124 11.506zM14.752 23.73c2.092.002 5.569 1.653 9.187 1.653 3.262 0 4.374-.27 6.293-.69 1.265-.21 2.217-.625 3.088-.697h.002c.73-.06 1.469.012 2.172.186.356.087.7.201 1.03.336A12.546 12.572 0 0124 36.648a12.546 12.572 0 01-12.54-12.38c.96-.29 2.092-.538 3.292-.538z" fill="#304878"/>
</svg>
